<?xml version="1.0" standalone="no"?>
<!DOCTYPE svg PUBLIC "-//W3C//DTD SVG 20010904//EN"
 "http://www.w3.org/TR/2001/REC-SVG-20010904/DTD/svg10.dtd">
<svg version="1.0" xmlns="http://www.w3.org/2000/svg"
 width="1280.000000pt" height="1144.000000pt" viewBox="0 0 1280.000000 1144.000000"
 preserveAspectRatio="xMidYMid meet">
<metadata>
Created by potrace 1.15, written by Peter Selinger 2001-2017
</metadata>
<g transform="translate(0.000000,1144.000000) scale(0.100000,-0.100000)"
fill="#9c27b0" stroke="none">
<path d="M6855 11431 c-69 -17 -117 -56 -150 -121 -29 -57 -55 -169 -62 -265
-5 -87 -5 -91 21 -122 15 -18 62 -53 104 -79 101 -61 161 -110 168 -138 10
-39 -73 -176 -234 -391 -247 -327 -755 -811 -1107 -1055 -69 -47 -95 -59 -95
-43 0 4 19 84 43 177 l42 171 0 245 c0 244 0 245 -26 301 -30 63 -89 133 -130
155 -33 17 -104 18 -164 3 -83 -21 -164 -132 -206 -284 -17 -64 -20 -98 -17
-211 3 -122 5 -137 23 -151 29 -21 147 -13 201 15 56 29 120 95 139 145 19 50
17 158 -2 165 -8 2 -13 -5 -13 -15 0 -44 -119 -123 -184 -123 -49 0 -113 27
-119 51 -7 27 49 135 83 159 40 29 124 45 185 36 60 -9 103 -51 156 -149 32
-59 34 -67 37 -188 4 -125 4 -127 -38 -250 -63 -190 -124 -295 -322 -556 -137
-181 -141 -204 -20 -108 31 26 160 122 285 215 260 193 286 214 418 327 53 46
101 83 107 83 6 0 104 91 218 203 341 333 532 564 693 840 113 194 130 215
164 202 14 -6 56 -50 94 -99 134 -176 129 -133 -37 369 -55 165 -106 337 -114
383 -7 45 -19 89 -26 97 -13 16 -63 18 -115 6z m16 -192 c86 -29 139 -135 122
-241 -7 -49 -19 -49 -135 0 -106 43 -153 82 -163 134 -17 88 72 142 176 107z"/>
<path d="M4202 10677 c-18 -42 -15 -253 3 -315 53 -177 271 -170 340 11 16 43
16 48 2 71 l-16 25 -31 -29 c-41 -39 -89 -47 -129 -24 -54 32 -135 166 -150
248 l-8 41 -11 -28z"/>
<path d="M8028 10563 c-61 -136 -10 -381 102 -493 52 -52 124 -70 177 -43 23
11 50 37 69 65 34 52 61 124 51 135 -4 3 -38 -1 -76 -10 -136 -33 -215 -14
-239 57 -7 21 -17 93 -22 160 -17 195 -25 213 -62 129z"/>
<path d="M2750 10340 c0 -6 22 -38 49 -70 27 -33 64 -80 81 -105 38 -55 55
-58 47 -9 -12 70 -112 194 -157 194 -11 0 -20 -5 -20 -10z"/>
<path d="M10290 10165 c-714 -172 -1745 -548 -2840 -1035 -345 -154 -462 -204
-675 -292 -270 -111 -378 -170 -460 -253 -74 -74 -145 -184 -145 -222 0 -13 2
-23 5 -23 2 0 45 27 95 60 163 107 1079 549 1505 727 527 220 1014 407 1690
648 445 159 562 199 679 235 141 43 266 122 266 166 0 18 -5 17 -120 -11z"/>
<path d="M2507 10091 c-107 -56 -208 -133 -194 -147 12 -12 263 135 282 166
12 19 -33 10 -88 -19z"/>
<path d="M2513 9825 c-3 -9 4 -39 16 -67 30 -73 28 -88 -12 -88 -18 0 -42 -7
-54 -15 -11 -8 -39 -17 -62 -21 -41 -7 -41 -7 -24 -26 16 -18 27 -20 88 -16
97 7 190 55 141 74 -16 6 -27 32 -51 117 -15 56 -30 71 -42 42z"/>
<path d="M10462 9806 c-72 -66 -126 -203 -138 -356 -10 -124 1 -147 105 -224
97 -71 121 -98 121 -134 0 -88 -258 -411 -581 -727 -208 -203 -368 -340 -699
-600 -744 -582 -929 -730 -920 -733 22 -8 365 200 660 399 537 362 1065 872
1522 1471 66 87 125 161 131 165 15 9 58 -46 148 -190 42 -67 82 -122 89 -122
19 0 28 37 29 123 1 88 -8 109 -139 307 l-92 139 16 91 c31 173 16 276 -50
353 -70 82 -139 95 -202 38z m107 -181 c43 -39 77 -109 92 -191 13 -72 6 -94
-31 -94 -41 0 -130 35 -178 69 -43 32 -62 82 -62 165 0 63 24 86 90 86 43 0
55 -5 89 -35z"/>
<path d="M3030 9744 c0 -9 16 -42 36 -74 20 -33 33 -64 29 -71 -5 -8 -27 -10
-67 -6 -55 5 -62 3 -113 -30 -30 -20 -55 -40 -55 -46 0 -6 23 -7 61 -3 34 3
96 6 139 6 l76 0 -8 73 c-5 45 -16 82 -28 99 -11 15 -20 32 -20 37 0 9 -31 31
-44 31 -3 0 -6 -7 -6 -16z"/>
<path d="M2003 9670 c-33 -13 -28 -38 10 -54 l32 -14 -37 -16 c-21 -9 -44 -16
-53 -16 -23 0 -19 -13 18 -55 17 -20 43 -51 57 -67 30 -35 52 -31 71 13 15 37
0 114 -34 173 -25 44 -32 48 -64 36z"/>
<path d="M2270 9345 c-10 -13 -9 -19 6 -37 28 -31 138 -101 142 -89 4 12 -23
66 -55 109 -27 35 -71 44 -93 17z"/>
<path d="M3393 9304 c-23 -49 -28 -76 -31 -159 -6 -153 23 -253 168 -568 38
-84 71 -167 72 -186 4 -48 -31 -72 -116 -78 -77 -7 -139 12 -190 58 -41 35
-87 135 -121 259 -77 281 -148 455 -196 480 -38 21 -37 -10 12 -275 17 -93 22
-162 23 -306 l1 -185 -27 -42 c-47 -71 -175 -127 -206 -89 -8 9 -19 117 -32
303 -32 463 -51 594 -106 714 -27 59 -70 120 -84 120 -20 0 -22 -85 -11 -344
6 -149 14 -375 18 -501 5 -203 4 -232 -10 -243 -14 -12 -18 -9 -31 17 -9 16
-25 67 -35 113 -23 98 -43 149 -67 168 -14 12 -18 12 -31 -5 -23 -30 -10 -151
27 -265 17 -52 67 -171 112 -263 76 -159 81 -173 85 -250 7 -115 -6 -155 -69
-212 -29 -26 -70 -56 -92 -67 l-39 -20 -39 22 c-73 41 -135 52 -324 57 l-181
5 -13 122 c-12 128 -28 182 -56 193 -48 18 -69 -42 -84 -245 -13 -181 -18
-212 -33 -212 -32 0 -124 -56 -179 -107 -82 -79 -135 -152 -225 -310 -89 -159
-173 -273 -248 -340 -55 -50 -199 -133 -229 -133 -31 0 -94 39 -130 81 -41 48
-43 44 -18 -33 37 -110 87 -170 160 -193 36 -11 84 2 134 35 47 31 213 221
242 278 9 17 20 32 25 32 5 0 21 20 36 45 72 124 302 378 394 437 63 40 88 37
100 -9 5 -21 15 -153 20 -293 6 -140 15 -280 20 -310 5 -30 12 -158 16 -285
10 -342 -14 -587 -62 -613 -32 -18 -165 31 -205 75 -23 26 -61 113 -98 227
-17 52 -38 100 -46 107 -53 43 -237 -54 -314 -166 -17 -24 -66 -117 -111 -207
-128 -258 -226 -388 -292 -388 -10 0 -49 30 -86 68 -58 58 -73 82 -116 181
-28 63 -55 116 -61 118 -7 2 -14 -16 -18 -46 -7 -53 -48 -195 -89 -303 -13
-38 -23 -68 -21 -68 2 0 22 20 45 45 54 59 136 118 150 110 6 -4 26 -41 45
-83 41 -90 64 -118 119 -143 125 -58 194 13 330 342 53 128 94 198 143 245 33
31 137 83 184 90 46 8 61 -12 102 -130 66 -189 155 -276 308 -301 44 -7 50
-19 33 -68 -29 -83 -106 -152 -281 -248 -159 -87 -275 -214 -233 -254 21 -20
134 -52 323 -90 228 -47 316 -77 316 -108 0 -19 -91 -98 -177 -154 -264 -172
-696 -305 -988 -305 -297 0 -513 111 -586 299 -30 79 -37 255 -15 372 9 46 16
91 16 100 -1 26 -48 -72 -82 -171 -28 -81 -32 -107 -32 -198 -1 -175 57 -333
156 -426 95 -88 292 -160 469 -171 333 -20 854 154 1094 365 139 123 234 291
235 415 0 77 -24 93 -198 131 -119 25 -152 39 -152 62 0 9 20 43 44 77 24 34
73 112 109 172 36 61 83 127 105 148 l39 39 18 -74 c45 -188 113 -322 199
-394 111 -94 270 -162 428 -184 174 -25 423 -8 643 45 204 48 328 93 565 205
199 94 185 92 214 29 25 -52 50 -140 61 -213 l6 -39 34 33 c23 22 43 33 62 32
15 0 123 -4 239 -8 317 -10 443 16 609 127 133 89 213 211 240 366 13 73 13
80 -6 120 -26 55 -119 139 -189 172 -48 23 -68 26 -160 26 -129 0 -204 -23
-316 -96 -90 -59 -249 -216 -330 -326 -73 -99 -104 -133 -121 -133 -20 0 -50
56 -57 105 -4 23 -13 51 -20 61 -13 17 -18 17 -67 5 -29 -8 -199 -71 -378
-142 -479 -187 -527 -199 -829 -199 -166 0 -200 3 -249 20 -169 59 -358 218
-427 360 -46 93 -55 166 -32 237 16 48 77 123 100 123 6 0 26 -23 45 -51 40
-58 101 -112 154 -134 125 -52 260 47 391 288 38 70 74 126 80 124 6 -2 24
-37 39 -77 40 -103 80 -154 165 -210 93 -61 225 -105 363 -121 366 -40 920
139 1414 459 176 114 319 235 354 301 16 30 0 28 -63 -8 -69 -40 -238 -106
-333 -131 -339 -89 -599 -10 -716 217 -51 97 19 122 339 123 l162 0 83 88 c86
90 149 190 149 236 0 14 -3 26 -7 26 -4 0 -41 -22 -83 -50 -86 -57 -147 -79
-394 -145 -208 -56 -287 -93 -333 -153 -48 -63 -69 -142 -54 -205 20 -88 40
-116 136 -193 100 -79 165 -148 165 -174 0 -39 -66 -70 -260 -124 -211 -58
-507 -78 -640 -42 -175 46 -254 107 -304 236 -18 44 -17 45 5 63 12 10 133 74
268 142 135 69 282 148 326 177 95 62 231 194 267 260 134 242 104 523 -73
713 -74 79 -124 99 -234 93 -66 -3 -78 -7 -105 -33 -66 -63 -115 -198 -108
-303 6 -101 32 -114 263 -132 149 -12 199 -21 230 -43 17 -13 17 -18 5 -47
-43 -103 -165 -245 -307 -356 -128 -101 -238 -163 -473 -265 -115 -50 -140
-53 -157 -19 -21 45 -70 638 -80 976 l-6 211 99 7 c125 9 184 36 269 124 66
66 82 73 109 43 58 -64 238 -89 321 -44 22 12 65 47 95 77 30 31 59 56 65 56
7 0 22 -12 36 -26 40 -44 95 -64 180 -64 48 0 82 5 94 14 50 36 43 348 -10
406 -46 51 -76 0 -51 -88 19 -69 21 -123 4 -140 -15 -15 -70 -15 -121 -1 -45
12 -67 52 -67 121 0 24 -6 63 -14 88 -15 51 -20 46 -50 -46 -37 -113 -115
-190 -217 -214 -62 -15 -151 -7 -186 15 -27 18 -27 20 -7 127 5 30 3 39 -9 44
-30 11 -79 -42 -131 -140 l-51 -95 -79 -39 -79 -40 -88 45 c-96 48 -111 63
-134 139 -27 89 -23 105 46 158 33 26 73 67 87 92 131 218 177 284 197 284 7
0 30 -36 51 -81 21 -44 50 -91 66 -104 61 -51 177 -77 267 -59 34 7 127 84
129 106 0 7 8 33 17 58 14 36 16 67 12 155 -6 118 -42 275 -130 565 -44 145
-44 145 -21 148 66 9 266 -135 396 -284 114 -131 264 -388 342 -587 66 -167
115 -542 116 -887 1 -157 9 -166 31 -30 19 116 19 635 1 740 -38 212 -104 425
-182 585 -68 142 -132 233 -272 390 -86 97 -120 127 -206 182 -117 75 -200
111 -272 120 l-50 6 -27 -59z m-778 -1906 c10 -24 28 -99 42 -168 24 -121 25
-143 30 -651 l5 -525 -88 -33 c-105 -38 -174 -76 -174 -96 0 -22 17 -19 140
25 61 22 116 40 121 40 20 0 20 -50 -1 -97 -42 -99 -125 -150 -263 -161 l-68
-5 -49 51 c-51 53 -73 105 -64 152 6 27 -9 70 -25 70 -4 0 -46 -39 -92 -86
-99 -100 -118 -113 -134 -91 -19 26 -53 834 -54 1275 -1 291 -4 280 64 268 49
-9 95 -53 146 -139 61 -100 105 -147 138 -147 34 0 60 28 141 150 78 117 148
210 159 210 5 0 17 -19 26 -42z m1015 -133 c36 -19 37 -29 8 -49 -24 -17 -56
-20 -107 -10 -38 8 -40 26 -5 53 32 25 64 27 104 6z m1334 -1749 c97 -29 156
-98 156 -181 -1 -76 -27 -125 -86 -156 -106 -57 -246 -92 -435 -109 -159 -14
-332 -13 -347 2 -7 7 -12 37 -12 68 0 166 172 322 415 375 82 18 250 19 309 1z"/>
<path d="M2479 6946 c-20 -14 -65 -35 -100 -46 -118 -40 -266 -127 -247 -145
7 -7 211 71 299 115 72 34 123 76 114 91 -10 15 -28 11 -66 -15z"/>
<path d="M2292 6634 c-112 -30 -189 -97 -199 -173 -8 -55 10 -60 94 -26 83 34
166 38 207 12 61 -41 48 -60 -100 -142 -115 -65 -192 -125 -181 -142 15 -24
156 35 248 103 84 61 169 220 169 316 0 58 -119 84 -238 52z"/>
<path d="M2230 9155 c0 -31 138 -93 169 -75 13 7 11 10 -12 19 -16 6 -31 11
-35 11 -4 0 -25 14 -46 30 -43 32 -76 39 -76 15z"/>
<path d="M1666 9097 c-27 -20 -17 -53 14 -49 14 2 31 9 38 16 11 11 11 16 -3
30 -20 19 -26 20 -49 3z"/>
<path d="M2418 8915 c-42 -29 -92 -103 -118 -178 -11 -31 -33 -131 -50 -224
-57 -321 -84 -392 -173 -443 -67 -38 -91 -38 -127 2 -62 68 -108 235 -117 431
-3 64 -9 117 -14 117 -27 0 -22 -308 6 -420 51 -198 161 -316 273 -294 85 17
113 92 167 457 14 93 33 187 44 210 10 23 42 71 71 107 29 36 61 83 71 105 19
41 26 140 11 149 -5 3 -25 -6 -44 -19z"/>
<path d="M5551 8573 c-11 -78 -48 -231 -111 -462 -11 -41 -20 -88 -20 -103 0
-16 18 -82 39 -146 55 -161 208 -692 275 -952 215 -834 348 -1588 431 -2435
30 -301 31 -366 8 -403 -126 -198 -679 -777 -993 -1039 -418 -348 -973 -714
-1415 -932 -379 -187 -670 -260 -1003 -249 -209 7 -356 47 -519 140 -112 64
-167 117 -207 201 -69 147 -71 160 -71 402 0 215 1 223 32 347 41 161 101 346
168 518 57 146 75 186 247 570 120 265 135 304 115 297 -31 -10 -184 -274
-312 -540 -80 -166 -195 -440 -250 -597 -67 -193 -156 -590 -180 -805 -11 -90
-8 -350 5 -466 6 -56 20 -125 30 -153 10 -28 26 -80 35 -116 28 -114 148 -294
243 -364 119 -87 313 -160 474 -177 135 -15 365 -5 497 21 231 47 524 165 831
334 221 123 797 516 849 580 8 10 31 26 51 36 46 24 194 138 291 226 42 38
111 98 154 134 43 36 90 82 106 103 15 21 42 48 60 60 67 45 328 347 501 579
105 141 335 548 398 704 33 83 64 133 74 123 3 -3 17 -116 31 -250 66 -654
205 -1170 445 -1649 152 -303 321 -534 566 -770 214 -206 419 -350 744 -523
173 -91 514 -220 745 -282 168 -44 587 -125 651 -125 32 0 43 38 55 180 14
162 8 497 -8 526 -15 27 -42 37 -178 69 -411 97 -745 276 -962 515 -22 25 -66
84 -97 132 -61 94 -166 302 -166 330 0 96 594 432 1101 621 192 72 867 272
1134 336 66 16 237 57 380 91 831 199 1125 279 1510 410 232 80 291 106 303
138 15 40 119 416 136 492 8 36 17 90 21 121 l6 55 -103 -12 c-113 -14 -509
-45 -878 -69 -530 -33 -785 -39 -1765 -40 -904 0 -1025 2 -1395 23 -735 40
-1240 86 -1240 111 0 32 286 250 575 438 330 215 832 461 1280 628 205 77 438
155 460 155 20 0 75 -87 75 -117 0 -13 8 -38 17 -56 l17 -32 7 30 c4 17 7 55
8 86 0 31 4 77 7 102 l7 46 151 50 c178 59 355 104 648 166 117 24 223 47 235
51 24 7 70 88 129 229 56 135 124 336 124 367 0 33 -73 133 -269 368 -304 366
-535 555 -743 605 -87 22 -270 33 -368 23 -184 -20 -306 -92 -402 -240 -109
-166 -144 -294 -135 -497 7 -170 51 -333 158 -584 l34 -79 -25 -18 c-14 -11
-86 -47 -160 -81 -74 -34 -250 -115 -391 -180 -678 -311 -1024 -512 -1345
-782 -131 -110 -238 -227 -379 -414 -135 -181 -223 -343 -324 -598 -53 -135
-67 -163 -74 -155 -3 3 -26 174 -51 380 -142 1147 -195 1523 -297 2075 -160
866 -418 1613 -740 2140 -52 85 -73 115 -81 115 -3 0 -10 -39 -17 -87z m4284
-1699 c78 -19 229 -91 330 -159 117 -78 215 -162 215 -185 0 -24 -33 -47 -155
-108 -171 -85 -242 -105 -383 -110 -146 -5 -158 0 -202 89 -17 33 -52 93 -77
132 -62 97 -123 227 -130 275 -7 49 3 56 107 71 138 21 191 20 295 -5z m-2802
-3134 c339 -42 976 -79 1697 -100 695 -20 1003 -32 1024 -40 24 -9 -6 -24
-332 -166 -493 -214 -785 -395 -969 -601 -143 -160 -184 -218 -253 -357 -106
-210 -149 -362 -170 -591 -6 -66 -15 -124 -20 -129 -5 -4 -43 10 -88 34 -196
105 -468 348 -598 535 -149 215 -297 514 -383 772 -59 177 -161 588 -161 649
0 19 57 18 253 -6z"/>
<path d="M1455 8462 c-49 -26 -109 -59 -131 -74 -42 -27 -88 -77 -79 -86 2 -3
35 13 72 35 37 22 111 64 165 92 53 28 102 58 108 66 26 32 -46 14 -135 -33z"/>
<path d="M7933 8237 c7 -105 25 -155 150 -409 114 -235 112 -214 23 -279 -48
-36 -110 -38 -190 -9 -104 39 -132 94 -197 383 -44 194 -60 250 -90 310 -48
93 -51 13 -9 -226 48 -280 56 -480 21 -546 -6 -11 -28 -33 -48 -48 -32 -25
-45 -28 -107 -28 -152 1 -238 63 -275 200 -6 22 -17 92 -26 155 -17 124 -54
275 -81 337 -15 34 -18 35 -21 15 -7 -36 36 -448 57 -547 42 -204 110 -304
239 -350 57 -20 84 -19 129 4 42 22 88 69 154 156 69 92 66 90 134 49 96 -59
135 -74 196 -74 49 0 62 5 99 33 58 44 105 116 130 199 19 61 20 78 11 133
-16 99 -61 230 -117 340 -56 111 -165 285 -179 285 -5 0 -6 -36 -3 -83z"/>
<path d="M3958 8281 c-102 -44 -159 -91 -110 -91 24 0 222 98 222 110 0 18
-43 10 -112 -19z"/>
<path d="M1505 8242 c-60 -31 -191 -96 -290 -144 -177 -86 -247 -129 -233
-144 9 -8 28 0 318 134 219 100 345 171 345 192 0 27 -30 19 -140 -38z"/>
<path d="M11424 8039 c-20 -41 -47 -102 -60 -137 -41 -107 -25 -152 18 -53 28
64 89 253 84 259 -3 2 -21 -29 -42 -69z"/>
<path d="M1551 7883 l4 -88 -35 4 c-43 4 -77 21 -118 59 l-32 30 0 -92 0 -92
108 4 c59 2 112 8 119 14 6 5 16 30 21 55 11 49 3 93 -29 156 -31 61 -41 47
-38 -50z"/>
<path d="M2275 7845 c9 -66 26 -100 50 -100 15 0 21 8 23 32 3 27 -4 40 -38
75 l-41 43 6 -50z"/>
<path d="M860 7792 c0 -22 46 -72 66 -72 24 0 15 35 -13 56 -48 35 -53 36 -53
16z"/>
<path d="M11212 7563 c-34 -73 -37 -84 -37 -168 1 -69 6 -101 21 -135 28 -61
106 -145 168 -181 44 -25 61 -29 128 -29 76 0 79 1 119 37 49 45 67 76 69 128
3 58 2 62 -15 38 -33 -47 -149 -72 -228 -49 -90 26 -106 56 -137 256 -27 165
-30 180 -41 180 -6 0 -27 -35 -47 -77z"/>
<path d="M1183 7583 c-13 -5 -18 -45 -7 -55 8 -8 75 9 88 22 23 23 -42 50 -81
33z"/>
<path d="M960 7462 c0 -7 33 -57 127 -194 36 -52 47 -49 40 13 -7 59 -45 129
-85 157 -30 22 -82 37 -82 24z"/>
<path d="M4570 7281 c0 -11 67 -71 79 -71 5 0 15 7 22 16 11 14 10 20 -14 40
-27 23 -87 34 -87 15z"/>
<path d="M4110 7225 c-18 -21 -5 -45 25 -45 14 0 28 7 31 15 7 17 -12 45 -31
45 -7 0 -18 -7 -25 -15z"/>
<path d="M3040 7180 c-5 -31 1 -106 11 -132 13 -32 52 -44 93 -28 41 15 30 43
-21 53 -50 10 -61 22 -72 78 -5 24 -10 37 -11 29z"/>
<path d="M4564 6985 c-138 -41 -406 -154 -438 -186 -25 -23 13 -17 126 22 235
80 418 160 418 182 0 11 -18 8 -106 -18z"/>
<path d="M1570 6876 c0 -52 30 -96 66 -96 13 0 24 5 24 12 0 15 -73 128 -82
128 -5 0 -8 -20 -8 -44z"/>
<path d="M887 6893 c-23 -23 19 -73 61 -73 51 0 59 15 24 49 -28 29 -69 40
-85 24z"/>
<path d="M3440 6819 c-232 -79 -360 -145 -360 -185 0 -18 3 -18 58 10 26 13
99 45 162 71 171 70 254 115 234 127 -5 3 -47 -7 -94 -23z"/>
<path d="M8955 6781 c-113 -40 -856 -339 -1065 -428 -367 -157 -609 -288 -808
-438 -96 -72 -312 -264 -312 -276 0 -10 89 31 505 236 554 272 779 375 1108
506 231 93 354 153 453 221 72 49 204 177 204 197 0 14 9 16 -85 -18z"/>
<path d="M1495 6629 c-14 -18 -39 -58 -56 -90 -32 -63 -36 -111 -15 -169 12
-31 17 -34 42 -31 44 7 93 6 156 -3 57 -8 58 -8 69 20 26 67 -17 189 -93 266
-46 46 -68 48 -103 7z m61 -114 c62 -12 120 -113 71 -123 -19 -4 -132 64 -162
98 -17 19 -17 20 6 29 13 5 31 8 39 6 8 -2 29 -6 46 -10z"/>
<path d="M3725 6256 c-9 -14 -32 -64 -51 -113 -20 -48 -38 -94 -41 -100 -10
-24 -20 -13 -27 25 -8 54 -54 96 -102 94 -34 -1 -74 -24 -74 -42 0 -4 14 -10
31 -14 44 -8 106 -61 131 -110 23 -46 76 -116 87 -116 4 0 6 25 3 56 -6 78 22
173 73 249 32 46 40 66 33 78 -13 25 -45 21 -63 -7z"/>
<path d="M1263 6240 c-96 -48 -189 -138 -166 -161 11 -11 62 23 166 109 105
87 105 105 0 52z"/>
<path d="M665 6129 c-3 -30 -5 -101 -3 -159 l3 -105 34 -3 c48 -5 55 8 31 60
-11 25 -25 90 -32 144 -6 54 -15 103 -19 108 -4 4 -10 -16 -14 -45z"/>
<path d="M12200 5928 c-29 -16 -82 -99 -111 -178 -11 -30 -38 -158 -59 -285
-43 -254 -77 -390 -99 -390 -18 0 -42 65 -112 303 -32 112 -70 225 -84 253
-50 97 -142 164 -243 176 -67 8 -86 -12 -103 -107 -15 -84 -8 -102 42 -111 53
-8 137 -58 205 -121 100 -94 151 -210 199 -453 14 -71 30 -134 35 -139 11 -11
74 44 95 84 26 49 64 217 85 369 27 198 66 323 119 382 35 39 43 44 82 44 36
0 55 -8 103 -43 94 -67 137 -54 138 44 1 60 -39 116 -106 148 -63 31 -151 42
-186 24z"/>
<path d="M4109 5551 c-258 -86 -489 -191 -489 -223 0 -4 24 2 53 13 28 12 139
54 246 95 216 82 331 133 331 145 0 14 -19 10 -141 -30z"/>
<path d="M2917 5467 c-8 -7 -20 -28 -26 -48 -20 -62 -63 -73 -209 -53 -138 18
-159 14 -182 -39 -18 -40 -18 -43 -2 -72 26 -44 102 -79 184 -83 81 -5 91 1
124 75 12 29 30 56 38 59 9 3 63 -10 120 -30 108 -37 166 -45 166 -24 0 7 12
37 27 66 34 68 28 80 -63 110 -145 48 -161 51 -177 39z"/>
<path d="M1090 5211 c-303 -122 -599 -262 -569 -268 30 -7 471 163 629 242 47
24 94 52 104 64 19 21 19 21 0 21 -10 0 -84 -27 -164 -59z"/>
<path d="M953 4830 c-18 -11 -47 -44 -64 -75 -17 -30 -36 -58 -41 -62 -6 -3
-23 8 -37 24 -47 56 -96 68 -131 33 -11 -11 -20 -29 -20 -39 0 -17 8 -20 51
-23 64 -4 83 -26 107 -123 28 -112 51 -96 79 51 17 96 44 138 93 149 38 8 44
19 28 52 -17 35 -27 37 -65 13z"/>
<path d="M3607 4843 c-11 -10 -8 -89 8 -203 8 -58 15 -111 15 -117 0 -19 149
-17 216 3 29 8 64 24 76 34 l23 19 -26 1 c-14 0 -48 -6 -75 -14 -27 -8 -68
-17 -91 -21 -39 -6 -46 -4 -73 23 -30 30 -30 31 -30 144 0 75 -4 118 -12 126
-14 14 -22 15 -31 5z"/>
<path d="M1210 4612 c0 -65 13 -107 37 -116 41 -16 44 40 7 110 -39 74 -44 75
-44 6z"/>
<path d="M417 4544 c-11 -11 -8 -67 4 -105 15 -44 37 -69 61 -69 25 0 23 28
-6 92 -28 63 -49 92 -59 82z"/>
<path d="M2183 4493 c-23 -9 -15 -42 11 -49 29 -7 46 1 46 21 0 12 -31 37 -42
34 -2 0 -9 -3 -15 -6z"/>
<path d="M3813 3931 c-32 -20 -82 -81 -109 -133 -27 -52 -45 -145 -75 -398
-45 -385 -47 -389 -97 -267 -17 39 -47 117 -67 172 -65 177 -108 257 -170 313
-81 74 -199 112 -254 82 -22 -11 -58 -91 -67 -147 -8 -49 11 -140 33 -165 31
-34 118 -21 175 27 38 32 50 31 92 -5 48 -43 105 -159 171 -350 72 -206 112
-289 129 -261 11 16 66 308 95 503 36 234 53 311 82 374 35 74 100 88 175 39
37 -24 79 -19 104 13 18 22 21 36 17 75 -7 82 -61 130 -158 142 -34 5 -51 1
-76 -14z"/>
<path d="M958 3400 c-81 -169 -116 -288 -89 -304 14 -9 26 13 61 114 90 263
102 347 28 190z"/>
<path d="M820 2906 c-9 -18 -11 -58 -8 -148 6 -150 32 -243 79 -282 57 -49
199 -75 251 -48 43 24 178 272 147 272 -6 0 -35 -20 -65 -44 -62 -51 -94 -61
-172 -51 -69 9 -114 48 -132 116 -27 105 -54 179 -70 194 -15 14 -18 13 -30
-9z"/>
<path d="M11035 2394 c-103 -25 -170 -76 -215 -165 -26 -49 -26 -74 -2 -64 95
42 380 82 396 57 4 -6 -59 -79 -147 -170 -168 -174 -281 -313 -321 -395 -58
-118 -76 -362 -30 -407 42 -42 323 -50 530 -15 288 49 637 227 824 419 50 52
40 58 -40 20 -201 -94 -577 -235 -694 -260 -111 -24 -258 -28 -354 -11 -81 15
-209 66 -224 90 -22 35 7 118 73 203 22 29 106 112 187 184 168 151 222 207
263 269 35 54 81 191 77 228 l-3 28 -130 2 c-86 1 -150 -3 -190 -13z"/>
<path d="M5765 2246 c-45 -19 -91 -95 -109 -179 -8 -35 9 -42 57 -22 41 17
115 20 137 5 25 -17 -21 -46 -126 -79 -177 -57 -271 -124 -295 -213 -8 -30
-10 -115 -6 -273 5 -226 6 -233 52 -450 65 -308 83 -404 100 -514 17 -113 35
-345 35 -451 1 -117 17 -62 23 80 11 232 -7 413 -83 825 -45 239 -56 323 -70
520 -17 238 -21 218 58 257 l67 33 195 -4 c107 -2 229 -4 270 -5 l75 -1 3 43
c8 105 -45 236 -135 332 -86 94 -175 128 -248 96z"/>
</g>
</svg>
