<?xml version="1.0" standalone="no"?>
<!DOCTYPE svg PUBLIC "-//W3C//DTD SVG 20010904//EN"
 "http://www.w3.org/TR/2001/REC-SVG-20010904/DTD/svg10.dtd">
<svg version="1.0" xmlns="http://www.w3.org/2000/svg"
 width="1280.000000pt" height="1280.000000pt" viewBox="0 0 1280.000000 1280.000000"
 preserveAspectRatio="xMidYMid meet">
<metadata>
Created by potrace 1.15, written by Peter Selinger 2001-2017
</metadata>
<g transform="translate(0.000000,1280.000000) scale(0.100000,-0.100000)"
fill="#875691" stroke="none">
<path d="M6948 12761 c-67 -73 -209 -297 -268 -422 l-28 -60 43 -92 c79 -170
126 -350 157 -597 17 -133 16 -641 0 -805 -7 -66 -15 -145 -18 -175 l-5 -55
31 35 c55 62 150 210 200 314 134 277 187 542 177 885 -7 259 -45 459 -136
721 -34 99 -106 278 -115 288 -2 1 -19 -15 -38 -37z"/>
<path d="M11648 10936 c-117 -84 -303 -207 -828 -548 -1131 -735 -1494 -975
-1792 -1186 l-85 -61 -12 -84 c-7 -47 -26 -143 -41 -213 -16 -71 -27 -130 -25
-132 11 -11 743 409 1224 703 1049 640 1573 1026 1627 1197 18 59 32 378 16
378 -5 0 -43 -24 -84 -54z"/>
<path d="M4145 10500 c-178 -19 -337 -65 -500 -145 -137 -67 -209 -121 -308
-232 -93 -104 -160 -207 -195 -305 -23 -63 -27 -88 -27 -188 0 -113 1 -117 38
-192 24 -51 57 -97 93 -132 53 -53 159 -116 196 -116 40 0 29 -10 -142 -124
-282 -188 -622 -377 -1215 -675 l-310 -156 50 -3 c28 -1 93 -9 146 -17 142
-22 189 -20 272 14 361 144 926 431 1272 645 103 64 227 147 337 225 l47 34
78 -12 c101 -16 242 -63 320 -107 l62 -34 -2 47 c-1 27 3 94 7 150 7 82 6 106
-5 119 -20 25 -86 51 -146 59 -29 4 -53 10 -53 13 0 3 13 20 29 37 52 54 142
188 187 278 131 259 170 544 97 692 -27 54 -85 105 -137 120 -53 16 -80 17
-191 5z m-3 -322 c23 -13 53 -39 66 -58 51 -74 7 -201 -128 -368 -70 -87 -121
-140 -257 -266 l-42 -39 -62 17 c-235 65 -338 206 -264 365 60 129 321 325
489 368 68 17 147 10 198 -19z"/>
<path d="M6985 10272 c-22 -20 -80 -74 -129 -119 l-89 -82 2 -373 c2 -413 -6
-499 -55 -608 -28 -62 -75 -113 -123 -132 -45 -17 -162 -11 -225 12 -102 39
-152 100 -182 225 -20 80 -21 325 -5 650 5 104 8 191 6 193 -12 13 -81 -26
-117 -67 -56 -62 -89 -125 -126 -236 -60 -182 -82 -327 -82 -555 0 -309 59
-524 178 -652 93 -100 197 -132 361 -110 162 22 276 76 402 191 l70 64 47 -45
c146 -139 244 -178 454 -178 130 0 197 11 277 47 147 64 233 194 272 408 15
85 16 343 1 520 -6 72 -13 162 -14 200 l-3 70 61 6 c60 6 154 27 154 36 0 2
-17 22 -37 44 -97 104 -232 319 -283 450 l-27 69 -58 -87 c-32 -49 -87 -128
-123 -177 l-66 -88 12 -112 c7 -61 26 -205 42 -319 54 -375 39 -501 -64 -562
-52 -30 -141 -43 -221 -31 -54 9 -115 57 -145 115 -26 52 -58 191 -70 306 -14
135 -30 488 -30 660 0 153 -10 305 -19 305 -3 0 -24 -17 -46 -38z"/>
<path d="M11428 9927 c-298 -276 -377 -344 -413 -353 -18 -4 -24 -11 -21 -23
3 -9 32 -167 65 -351 392 -2180 547 -3394 623 -4870 18 -344 18 -1816 0 -2185
-18 -383 -39 -735 -63 -1063 -11 -156 -19 -291 -17 -300 2 -10 27 21 64 78
331 518 459 950 529 1795 22 262 31 1070 16 1485 -30 830 -108 1900 -226 3079
-25 245 -45 450 -45 455 0 6 6 3 13 -5 6 -9 53 -50 103 -92 316 -264 467 -566
490 -981 6 -107 -7 -316 -26 -401 -5 -22 -7 -41 -5 -43 5 -6 85 156 133 268
105 248 147 431 146 640 0 326 -99 507 -436 803 -217 189 -248 226 -323 381
-162 332 -351 1049 -441 1681 -10 69 -22 125 -26 125 -4 0 -67 -55 -140 -123z"/>
<path d="M7067 7584 c-64 -55 -293 -298 -376 -399 l-41 -50 0 -330 c0 -683 23
-1448 91 -3000 16 -363 16 -1025 1 -1190 -81 -846 -350 -1134 -1116 -1195
-589 -47 -1015 61 -1280 325 -325 323 -432 855 -340 1695 37 343 79 586 239
1385 211 1055 249 1418 185 1745 -51 254 -206 416 -411 428 -173 10 -327 -75
-544 -299 -228 -237 -387 -464 -875 -1249 -124 -201 -277 -444 -340 -540 -447
-692 -769 -1019 -1068 -1086 -94 -21 -163 -14 -274 26 -251 91 -402 294 -464
625 -16 81 -19 146 -18 345 0 215 4 278 34 520 24 192 34 318 35 418 0 139 -1
144 -24 163 -32 26 -44 24 -86 -12 -115 -101 -262 -502 -335 -909 -87 -491
-77 -953 28 -1315 71 -243 169 -420 320 -577 137 -142 306 -244 507 -304 119
-35 298 -44 407 -20 320 72 614 352 918 876 86 148 264 502 420 835 161 343
332 683 406 806 168 281 317 437 469 495 72 27 196 25 252 -4 160 -83 187
-317 97 -827 -25 -141 -66 -327 -213 -970 -137 -603 -209 -1006 -247 -1395
-20 -203 -23 -652 -5 -795 48 -392 141 -674 306 -921 235 -352 589 -584 1082
-708 479 -120 923 -121 1268 -4 323 109 597 325 803 633 69 103 193 339 230
436 11 29 25 67 32 83 l11 30 63 -105 c275 -459 541 -785 791 -972 109 -82
318 -187 439 -222 264 -75 585 -70 981 15 500 108 844 369 1062 805 140 279
218 599 254 1042 15 185 6 749 -15 983 -45 483 -124 995 -255 1655 -49 244
-265 1259 -277 1300 -8 28 108 -86 220 -217 210 -242 303 -430 356 -713 26
-141 54 -244 82 -300 33 -66 122 -176 192 -238 78 -69 73 -80 51 139 -71 688
-198 1173 -397 1522 -58 102 -113 180 -242 341 -132 165 -221 297 -268 397
-79 170 -132 380 -163 648 -16 140 -20 159 -33 140 -4 -6 -19 -26 -34 -45 -50
-65 -152 -255 -364 -680 l-212 -425 9 -115 c18 -234 80 -479 319 -1264 371
-1213 490 -1785 491 -2355 1 -462 -99 -783 -318 -1021 -210 -227 -521 -345
-963 -365 -407 -18 -712 77 -925 291 -186 185 -317 475 -410 908 -98 456 -151
992 -245 2512 -53 855 -112 1668 -160 2215 -17 184 -30 351 -30 372 0 21 -4
38 -9 38 -5 0 -39 -25 -74 -56z"/>
<path d="M7868 6250 c-26 -62 -78 -265 -78 -302 0 -58 39 -192 84 -291 41 -90
95 -175 226 -357 146 -202 170 -260 133 -316 l-16 -25 -36 34 c-49 47 -72 57
-126 57 -92 0 -135 -48 -135 -152 1 -102 56 -174 153 -199 125 -31 242 33 313
173 21 41 28 72 32 135 8 146 -47 269 -220 490 -151 194 -210 294 -261 444
-24 69 -51 201 -60 289 -2 21 -5 29 -9 20z"/>
<path d="M6040 6220 c0 -8 -5 -46 -10 -85 -34 -245 -109 -408 -296 -649 -161
-206 -228 -332 -240 -454 -16 -145 67 -300 188 -352 68 -29 167 -25 223 10 72
44 107 138 86 231 -12 55 -47 86 -106 94 -62 10 -89 1 -141 -47 -43 -39 -45
-40 -59 -22 -41 54 -13 127 115 299 220 298 308 476 317 645 3 77 0 97 -36
215 -22 72 -40 123 -41 115z"/>
<path d="M8752 4789 c-88 -44 -194 -204 -251 -380 l-22 -66 -63 13 c-232 49
-452 35 -544 -33 -49 -37 -64 -66 -64 -124 1 -65 42 -151 110 -230 48 -56 222
-219 233 -219 4 0 -4 27 -18 61 -46 114 -41 209 13 260 22 21 35 24 93 23 59
0 79 -6 162 -47 156 -76 272 -191 343 -341 19 -39 75 -156 125 -261 81 -170
131 -309 131 -367 0 -29 15 -22 62 30 74 83 96 190 64 312 -8 30 -65 165 -126
300 -192 420 -228 524 -211 603 11 46 47 104 77 124 44 28 179 13 287 -32 20
-8 39 -15 41 -15 8 0 -29 101 -54 150 -108 213 -256 304 -388 239z"/>
<path d="M5009 4766 c-70 -25 -133 -83 -193 -178 -37 -58 -101 -206 -93 -214
2 -2 46 10 98 27 111 36 202 38 240 4 34 -31 69 -110 69 -156 0 -65 -51 -201
-195 -519 -74 -162 -142 -324 -151 -360 -30 -117 1 -232 85 -314 l39 -38 12
58 c20 103 40 155 132 349 50 105 104 218 120 253 85 180 291 349 466 382 68
12 104 4 138 -31 24 -25 29 -40 32 -97 4 -63 -7 -113 -43 -196 -16 -37 37 5
155 123 94 94 124 130 153 190 58 116 46 189 -42 248 -52 35 -96 45 -227 50
-109 5 -253 -9 -348 -33 -19 -4 -24 3 -44 64 -78 243 -216 404 -343 402 -13
-1 -40 -7 -60 -14z"/>
<path d="M2552 2719 c-12 -5 -30 -22 -39 -38 -15 -26 -24 -29 -85 -35 -246
-25 -458 -164 -458 -301 0 -76 66 -155 172 -205 65 -31 65 -32 -27 -73 -187
-81 -516 -127 -924 -127 -113 0 -211 -4 -218 -8 -7 -5 19 -40 77 -102 l87 -95
184 -3 c467 -9 787 81 1030 289 l55 47 185 4 c209 5 261 17 329 76 164 140 52
371 -225 464 -74 25 -80 30 -88 60 -12 45 -27 58 -55 47z"/>
</g>
</svg>
