<svg width="128" height="128" viewBox="0 0 128 128" fill="none" xmlns="http://www.w3.org/2000/svg">
<path d="M16.596 30.4345L7 27.5557V90.889L63.6162 103.364L120.232 90.889V27.5557L110.636 30.4345" stroke="#930101"/>
<path d="M16.1364 17.5251C34.6573 18.4473 45.0985 20.5785 63.4355 27.6853L63.6102 27.753L63.7864 27.6892C82.3821 20.9531 92.825 18.7362 111.096 17.5336V84.0976L63.6161 95.1735L16.1364 84.0976V17.5251Z" stroke="#930101"/>
<path d="M63.6161 28.5151V93.7677" stroke="#930101"/>
<path d="M55.9394 25.6362V60.1817" stroke="#930101"/>
<path d="M17.5555 93.7676V112L63.6161 104.323L111.596 112V93.7676" stroke="#930101"/>
<path d="M16.596 74.5757C36.1724 78.5656 45.6891 82.4659 63.6162 91.8484C82.306 83.1918 91.8418 79.0565 110.636 74.5757" stroke="#930101"/>
</svg>
