<?xml version="1.0" standalone="no"?>
<!DOCTYPE svg PUBLIC "-//W3C//DTD SVG 20010904//EN"
 "http://www.w3.org/TR/2001/REC-SVG-20010904/DTD/svg10.dtd">
<svg version="1.0" xmlns="http://www.w3.org/2000/svg"
 width="1280.000000pt" height="832.000000pt" viewBox="0 0 1280.000000 832.000000"
 preserveAspectRatio="xMidYMid meet">
<metadata>
Created by potrace 1.15, written by Peter Selinger 2001-2017
</metadata>
<g transform="translate(0.000000,832.000000) scale(0.100000,-0.100000)"
fill="#551a8b" stroke="none">
<path d="M11441 8309 c-13 -5 -46 -27 -74 -49 -49 -39 -89 -51 -103 -29 -13
22 -90 49 -139 49 -67 0 -124 -28 -171 -84 -44 -53 -60 -56 -129 -25 -101 45
-209 9 -258 -84 l-19 -36 -66 25 c-92 35 -138 28 -201 -30 -81 -75 -83 -76
-144 -55 -28 10 -63 18 -77 18 -43 1 -106 -35 -129 -72 -29 -47 -44 -51 -98
-27 -27 12 -67 20 -99 20 -50 0 -57 -3 -109 -50 l-55 -50 -40 20 c-46 24 -128
27 -168 6 -15 -8 -40 -28 -56 -45 -36 -37 -43 -38 -85 -7 -73 54 -159 47 -227
-19 l-45 -45 -37 16 c-72 31 -84 34 -123 34 -33 0 -47 -8 -94 -50 -30 -27 -59
-50 -63 -50 -4 0 -29 11 -56 25 -78 39 -149 29 -206 -30 -19 -19 -40 -35 -47
-35 -7 0 -32 12 -55 27 -33 23 -52 28 -98 27 -61 -1 -121 -28 -140 -65 -14
-25 -35 -24 -71 2 -59 42 -148 37 -203 -11 -19 -17 -38 -30 -44 -30 -5 0 -36
14 -68 31 -67 35 -111 35 -149 -1 -28 -27 -66 -25 -123 5 -66 35 -121 34 -165
-5 -42 -37 -57 -37 -87 -5 -33 35 -90 49 -140 34 -22 -7 -45 -18 -51 -26 -15
-17 -34 -17 -62 1 -17 11 -114 15 -470 21 -352 5 -456 10 -483 21 -70 29 -154
10 -195 -45 -27 -37 -41 -38 -98 -6 -67 39 -136 30 -185 -24 -22 -24 -53 -27
-81 -7 -52 35 -129 26 -185 -21 -34 -29 -42 -27 -110 23 -49 36 -122 30 -186
-14 -52 -38 -74 -40 -100 -11 -47 53 -140 64 -195 24 -70 -51 -76 -52 -112
-18 -45 43 -69 53 -127 53 -50 0 -130 -30 -130 -49 0 -5 -7 -12 -16 -15 -11
-4 -34 10 -69 43 -70 66 -105 73 -203 38 l-73 -26 -52 54 c-79 81 -162 97
-238 45 -56 -38 -79 -37 -104 3 -46 74 -185 105 -272 59 -45 -24 -69 -21 -78
8 -10 30 -62 69 -103 76 -20 4 -62 18 -92 32 l-54 25 -61 -32 c-74 -39 -89
-39 -105 -1 -7 17 -30 46 -51 64 -72 61 -172 73 -251 31 -71 -38 -90 -34 -128
26 -37 57 -76 89 -138 112 -67 27 -110 22 -178 -19 -100 -61 -91 -60 -124 -8
-58 91 -129 134 -224 134 -98 0 -170 -30 -209 -88 -38 -55 -64 -82 -77 -82 -5
0 -25 14 -44 30 -18 17 -51 37 -72 46 -48 20 -179 21 -226 1 -59 -25 -113 -92
-148 -185 -15 -40 -47 -49 -98 -29 -95 38 -188 27 -268 -31 -90 -66 -132 -230
-85 -337 11 -26 21 -51 21 -56 0 -18 -44 -48 -98 -68 -117 -42 -182 -131 -182
-248 0 -76 17 -120 75 -193 l43 -56 -50 -28 c-69 -39 -114 -81 -146 -135 -23
-40 -27 -57 -27 -126 0 -70 4 -88 31 -140 20 -40 49 -75 85 -104 30 -24 55
-51 57 -60 1 -9 -21 -39 -51 -68 -69 -67 -92 -132 -84 -234 9 -107 52 -176
147 -235 33 -20 60 -40 60 -44 0 -4 -20 -30 -44 -56 -64 -72 -77 -105 -77
-186 0 -102 23 -161 90 -230 37 -38 68 -60 89 -64 18 -4 37 -15 43 -26 11 -20
8 -28 -45 -113 -24 -39 -30 -61 -35 -138 -6 -85 -5 -95 21 -149 43 -92 146
-188 201 -188 8 0 20 -7 27 -16 11 -12 8 -31 -18 -109 -36 -105 -43 -210 -17
-271 27 -66 102 -151 152 -174 127 -57 127 -57 83 -151 -80 -175 -38 -361 103
-456 49 -33 136 -63 181 -63 15 0 29 -6 32 -14 3 -8 -6 -50 -21 -93 -23 -65
-27 -90 -23 -149 6 -90 41 -168 102 -227 63 -60 124 -88 214 -98 41 -5 79 -14
84 -21 5 -7 5 -33 1 -58 -4 -25 -8 -88 -7 -140 0 -113 19 -165 88 -238 67 -71
137 -103 240 -109 51 -4 97 -1 116 6 53 18 62 3 54 -93 -11 -133 28 -249 109
-328 101 -98 269 -134 407 -87 89 30 95 25 92 -79 -4 -136 35 -231 133 -320
62 -57 140 -91 225 -99 43 -4 71 0 130 22 41 14 86 27 99 28 29 2 34 -13 49
-140 21 -185 131 -321 300 -373 47 -14 71 -16 132 -9 92 11 163 33 212 65 66
43 77 34 104 -87 32 -146 110 -247 245 -319 54 -28 77 -35 145 -38 127 -7 235
32 348 123 33 27 63 44 71 41 8 -3 21 -20 29 -38 8 -18 26 -59 39 -90 72 -164
252 -267 452 -256 117 6 194 45 296 150 42 43 83 78 91 78 20 0 37 -22 86
-106 58 -101 129 -159 244 -202 120 -45 251 -38 364 19 75 37 135 97 189 187
53 89 78 94 123 24 69 -107 182 -180 312 -202 84 -14 155 -2 250 43 76 35 186
139 214 202 39 86 78 87 170 6 102 -90 182 -121 318 -121 121 0 227 46 318
140 58 59 105 148 119 223 6 32 13 62 16 68 13 20 54 7 119 -36 92 -60 130
-70 266 -70 106 0 119 2 173 28 70 35 195 154 227 216 14 29 23 69 27 120 7
112 18 141 53 141 15 0 54 -12 86 -27 53 -25 70 -28 169 -28 106 0 113 1 186
36 41 20 91 50 111 68 85 74 140 206 136 323 -3 92 1 94 106 78 207 -32 352
31 445 194 30 53 35 69 42 170 4 61 8 113 8 115 1 4 64 -4 146 -18 141 -25
310 71 382 216 25 52 28 71 33 188 l5 130 35 12 c19 7 60 12 91 12 174 2 323
148 345 337 6 44 2 72 -16 130 -23 74 -24 75 -4 93 11 10 50 22 94 30 41 6 98
23 127 37 143 69 218 259 163 409 -42 115 -44 113 62 126 95 12 161 50 211
120 74 105 84 201 37 338 -39 113 -34 129 48 160 158 57 246 220 208 385 -10
42 -27 83 -45 105 -49 62 -64 101 -38 101 6 0 39 13 72 29 118 55 197 168 197
280 0 82 -24 157 -72 220 -22 30 -40 57 -40 61 0 15 33 49 77 79 62 42 90 83
110 158 27 103 2 199 -79 294 l-43 51 40 31 c106 83 141 146 139 252 -2 85
-21 132 -80 196 -30 32 -54 64 -54 70 0 6 24 33 54 60 30 27 64 69 75 92 28
58 28 155 0 217 -25 57 -93 126 -136 141 -18 6 -33 17 -33 26 0 8 17 35 39 59
107 122 69 326 -74 393 -25 11 -53 21 -63 21 -10 0 -26 6 -36 13 -18 13 -18
16 3 71 37 98 23 184 -41 248 -62 62 -91 73 -198 73 l-95 0 -9 48 c-16 92
-139 187 -241 187 -18 0 -56 -15 -89 -35 -32 -19 -62 -35 -66 -35 -5 0 -22 16
-38 36 -56 68 -161 101 -231 73z m9 -412 c25 -9 54 -17 63 -17 18 0 95 38 135
66 22 16 24 15 65 -28 65 -70 87 -80 178 -84 44 -2 84 -6 89 -9 6 -4 10 -22
10 -42 0 -86 93 -199 176 -214 27 -5 52 -13 57 -18 5 -5 0 -26 -12 -50 -31
-60 -36 -118 -17 -184 19 -65 57 -113 121 -154 25 -15 45 -31 45 -35 0 -4 -22
-32 -50 -63 -64 -71 -87 -141 -70 -218 14 -65 48 -124 99 -170 23 -20 41 -41
41 -47 0 -5 -25 -25 -55 -44 -150 -97 -171 -282 -49 -442 13 -17 24 -36 24
-42 0 -6 -25 -30 -54 -52 -62 -47 -110 -117 -121 -174 -3 -21 -3 -72 0 -112 6
-63 12 -79 46 -124 54 -72 52 -91 -14 -128 -61 -35 -129 -105 -153 -159 -11
-24 -17 -66 -18 -118 -1 -68 3 -89 28 -142 15 -34 37 -70 47 -79 32 -29 22
-43 -55 -78 -143 -65 -205 -152 -214 -298 -5 -89 9 -143 57 -208 38 -53 39
-68 4 -76 -142 -31 -229 -98 -283 -216 -30 -65 -27 -180 5 -249 28 -61 21 -79
-29 -79 -91 0 -216 -63 -272 -137 -62 -81 -82 -217 -49 -328 9 -27 13 -55 11
-62 -4 -9 -26 -13 -63 -13 -128 -1 -228 -43 -306 -130 -66 -74 -87 -137 -87
-265 0 -72 -4 -106 -12 -111 -7 -5 -53 -10 -103 -11 -49 -2 -108 -8 -130 -14
-97 -25 -186 -107 -237 -214 -24 -53 -30 -79 -32 -147 -1 -46 -5 -88 -9 -95
-5 -9 -47 -11 -145 -10 l-137 2 -63 -33 c-141 -73 -213 -181 -222 -330 -7
-110 -13 -115 -112 -82 -52 17 -96 23 -153 24 -69 0 -89 -4 -145 -31 -93 -45
-182 -129 -221 -209 -25 -51 -33 -80 -36 -142 -6 -108 -10 -122 -35 -122 -12
0 -43 14 -69 31 -69 44 -188 66 -283 52 -181 -26 -340 -170 -377 -342 -10 -50
-29 -71 -63 -71 -8 0 -50 22 -92 50 -86 56 -119 68 -219 76 -88 8 -172 -9
-247 -48 -86 -46 -133 -92 -186 -181 -63 -107 -81 -111 -155 -35 -28 30 -68
66 -88 81 -53 40 -146 60 -255 55 -85 -4 -99 -7 -178 -47 -87 -43 -141 -89
-209 -173 -23 -29 -46 -48 -58 -48 -12 0 -50 30 -92 74 -115 117 -232 163
-386 153 -137 -10 -259 -83 -343 -204 -45 -66 -78 -54 -108 40 -28 89 -155
205 -261 238 -107 33 -281 19 -380 -32 -24 -12 -71 -48 -105 -80 -33 -33 -65
-59 -71 -59 -11 0 -23 26 -44 95 -31 104 -109 187 -236 252 l-78 40 -110 -8
c-107 -7 -113 -9 -208 -58 -54 -28 -102 -51 -107 -51 -6 0 -10 10 -10 23 -1
46 -30 158 -55 210 -51 104 -162 189 -284 217 -86 20 -196 8 -267 -29 -33 -17
-64 -31 -71 -31 -18 0 -33 34 -33 77 0 50 -24 142 -50 194 -45 86 -127 151
-237 184 -65 20 -105 19 -191 -5 -39 -11 -85 -20 -101 -20 l-29 0 0 102 c0 80
-4 115 -20 155 -44 115 -132 198 -242 230 -43 12 -80 14 -174 9 l-118 -6 7 65
c13 121 -31 244 -120 338 -54 56 -138 87 -258 94 -56 4 -80 10 -84 20 -3 8 2
41 12 73 24 80 17 151 -24 234 -56 114 -144 175 -278 192 -64 8 -65 15 -22
111 37 79 41 133 16 214 -35 118 -115 200 -231 239 -35 11 -69 26 -74 33 -7 8
2 32 28 75 22 35 44 89 51 120 18 88 -4 195 -55 265 -31 42 -117 105 -169 123
-70 24 -72 31 -29 114 34 66 37 80 37 154 0 141 -58 230 -189 297 -45 22 -85
44 -89 48 -4 4 1 19 12 33 46 59 71 120 71 178 0 118 -46 205 -141 269 -30 20
-55 44 -57 54 -2 10 12 36 33 59 54 59 75 111 75 188 0 121 -53 213 -158 272
l-55 31 29 21 c130 94 165 168 144 301 -12 72 -45 138 -95 185 -34 32 -32 44
12 59 59 22 126 96 147 165 30 94 15 171 -46 249 -29 36 -15 49 57 55 108 9
202 91 227 199 7 29 19 55 26 58 7 3 36 -7 65 -21 44 -23 60 -26 122 -22 112
8 173 48 225 151 15 28 34 53 42 55 8 2 35 -14 59 -34 53 -44 87 -60 155 -69
61 -8 104 7 168 60 24 19 48 35 53 35 6 0 34 -28 63 -61 40 -46 69 -68 117
-90 l64 -29 60 25 c33 13 76 38 95 55 47 41 70 39 89 -7 34 -81 121 -142 203
-143 32 0 61 10 106 35 35 19 67 35 73 35 5 0 24 -22 40 -49 42 -67 101 -100
190 -108 74 -6 110 5 147 46 28 30 41 26 77 -24 45 -63 101 -88 184 -83 54 3
70 9 104 36 22 18 44 32 48 32 5 0 27 -19 48 -41 76 -79 172 -100 259 -57 l45
21 36 -29 c67 -53 95 -66 149 -70 47 -3 58 0 102 31 27 19 54 35 61 35 6 0 22
-14 34 -31 29 -41 91 -69 156 -69 44 0 57 5 93 35 41 34 83 45 95 25 13 -21
86 -50 125 -50 47 0 85 17 119 54 14 14 28 26 31 26 4 0 27 -16 51 -35 83 -66
149 -66 228 2 l43 37 47 -26 c79 -44 102 -45 178 -2 l66 37 52 -17 c90 -28
127 -21 193 35 34 31 42 30 113 -7 32 -16 57 -15 134 5 97 25 178 29 495 24
425 -6 476 -8 505 -27 63 -41 157 -37 204 8 33 31 47 33 61 6 29 -54 142 -68
200 -25 43 32 49 31 107 -5 26 -17 60 -30 77 -30 34 0 109 31 120 49 19 30 43
30 87 0 66 -44 120 -41 189 11 29 22 55 40 57 40 2 0 22 -14 43 -31 72 -58
186 -50 236 17 15 19 35 34 45 34 10 0 40 -14 68 -31 45 -28 57 -31 107 -27
51 4 60 9 95 47 42 45 51 46 126 14 43 -17 107 -17 142 2 16 8 45 33 64 56
l35 41 44 -25 c89 -52 164 -41 236 36 l34 35 41 -23 c23 -13 56 -26 74 -30 48
-10 113 12 150 51 37 40 58 42 131 14 88 -34 113 -28 196 47 48 43 69 52 81
33 3 -5 29 -16 57 -25 71 -21 120 -7 175 51 24 24 49 44 57 44 7 0 33 -9 57
-20 92 -41 183 -19 242 60 41 54 69 63 117 35 34 -20 115 -19 158 2 20 10 53
34 73 54 l37 37 61 -31 c62 -30 140 -45 185 -33 14 3 50 28 81 55 l56 49 42
-27 c23 -15 62 -35 87 -44z"/>
<path d="M12786 21 c-4 -7 -5 -15 -2 -18 9 -9 19 4 14 18 -4 11 -6 11 -12 0z"/>
</g>
</svg>
