<?xml version="1.0" standalone="no"?>
<!DOCTYPE svg PUBLIC "-//W3C//DTD SVG 20010904//EN"
 "http://www.w3.org/TR/2001/REC-SVG-20010904/DTD/svg10.dtd">
<svg version="1.0" xmlns="http://www.w3.org/2000/svg"
 width="1280.000000pt" height="1122.000000pt" viewBox="0 0 1280.000000 1122.000000"
 preserveAspectRatio="xMidYMid meet">
<metadata>
Created by potrace 1.15, written by Peter Selinger 2001-2017
</metadata>
<g transform="translate(0.000000,1122.000000) scale(0.100000,-0.100000)"
fill="#912968" stroke="none">
<path d="M5670 10837 c-5 -4 -722 -10 -2965 -23 -1139 -7 -1072 -3 -1098 -67
-11 -25 -927 -1412 -1029 -1557 -45 -63 -524 -794 -537 -819 -7 -13 -11 -35
-9 -50 3 -16 368 -481 929 -1182 508 -636 1286 -1610 1729 -2165 1981 -2481
2288 -2865 2898 -3629 356 -445 675 -852 710 -903 103 -150 118 -147 280 57
64 80 332 418 597 751 265 333 613 772 775 975 162 204 371 467 465 585 94
118 373 469 620 780 247 311 638 804 870 1095 232 292 600 755 818 1030 218
275 421 527 450 559 28 33 61 74 72 91 11 17 138 180 282 361 776 976 950
1194 1073 1347 179 223 180 225 180 262 0 25 -163 286 -777 1245 -446 695
-790 1222 -806 1234 l-28 21 -2747 3 c-1511 2 -2749 2 -2752 -1z m2158 -142
c6 -5 -1407 -1045 -1420 -1045 -7 0 -58 35 -113 77 -55 42 -360 274 -677 515
-318 242 -578 443 -578 448 0 6 249 11 638 13 658 3 2145 -2 2150 -8z m3190
-4 c-1 -6 -120 -96 -263 -202 -143 -106 -460 -341 -704 -522 -245 -182 -452
-332 -462 -334 -10 -3 -173 112 -440 309 -871 646 -984 730 -999 744 -12 12
185 14 1429 14 903 0 1441 -4 1439 -9z m-6383 -27 c-90 -74 -1348 -1029 -1360
-1032 -15 -4 -1389 1028 -1380 1036 5 6 1338 17 2290 20 l480 1 -30 -25z
m-2330 -484 c856 -645 865 -652 865 -664 -1 -6 -47 -45 -103 -87 -56 -42 -385
-293 -732 -558 -346 -264 -635 -481 -641 -481 -11 0 -943 743 -958 764 -12 18
959 1480 976 1470 7 -4 274 -204 593 -444z m8940 333 c507 -789 855 -1337 855
-1348 0 -6 -23 -32 -52 -56 -379 -320 -862 -719 -869 -719 -5 0 -150 109 -322
243 -172 133 -503 388 -735 567 -232 179 -422 328 -422 332 0 3 251 192 558
419 306 228 634 471 727 541 94 70 175 128 180 128 6 0 42 -48 80 -107z
m-6467 -1533 l-3 -541 -405 318 c-223 175 -535 419 -693 543 -158 123 -287
229 -286 235 0 5 116 98 257 205 509 387 1068 814 1097 838 l30 25 3 -542 c1
-297 1 -784 0 -1081z m867 1071 c363 -276 660 -507 660 -514 0 -9 -1207 -967
-1357 -1078 l-28 -20 0 1082 0 1081 33 -24 c17 -14 329 -251 692 -527z m2275
-536 c0 -754 -3 -1065 -11 -1065 -6 0 -203 152 -437 337 -235 185 -540 426
-679 535 -216 171 -278 228 -261 242 1 2 156 116 343 254 187 137 495 365 685
506 190 140 348 255 353 256 4 0 7 -479 7 -1065z m675 670 c800 -592 875 -649
875 -657 0 -21 -119 -117 -511 -413 -233 -176 -530 -400 -659 -497 -129 -98
-238 -178 -242 -178 -10 0 -11 2124 -1 2133 3 4 11 3 17 -2 6 -4 241 -178 521
-386z m-2006 -1000 c309 -507 355 -583 404 -665 27 -47 57 -94 66 -105 37 -44
64 -122 58 -167 -3 -24 -47 -230 -97 -458 -97 -441 -339 -1550 -490 -2245 -93
-431 -104 -472 -113 -445 -3 8 -135 569 -292 1245 -157 677 -320 1374 -362
1550 -42 176 -76 338 -75 360 2 62 34 119 227 412 99 150 252 383 340 518 95
145 166 244 174 242 7 -1 79 -110 160 -242z m3368 -264 c191 -262 357 -489
371 -506 25 -30 25 -39 6 -145 -4 -19 -105 -285 -226 -590 -264 -671 -290
-735 -608 -1545 -139 -352 -285 -723 -325 -825 -40 -102 -76 -195 -79 -207 -7
-23 -26 -32 -26 -12 0 6 -9 70 -20 142 -11 73 -76 517 -144 987 -69 470 -139
950 -156 1065 -124 846 -137 950 -131 1027 l6 77 52 48 c28 26 218 236 422
465 398 447 475 525 498 506 8 -6 170 -226 360 -487z m-6313 -36 c369 -498
417 -567 430 -618 3 -15 -5 -123 -19 -240 -14 -116 -95 -817 -180 -1556 -85
-739 -157 -1346 -160 -1349 -3 -3 -11 10 -19 29 -243 581 -526 1261 -621 1489
-67 162 -220 529 -340 815 -368 882 -330 781 -316 833 6 25 26 65 44 88 59 77
809 1004 812 1004 2 0 168 -223 369 -495z m429 -67 c254 -199 479 -374 500
-390 20 -17 37 -34 37 -39 0 -5 -89 -9 -209 -9 l-210 0 -34 43 c-37 46 -539
724 -551 745 -4 6 -4 12 -1 12 4 0 214 -163 468 -362z m2001 340 c-21 -36
-470 -718 -491 -745 l-24 -33 -242 0 -242 0 25 24 c30 28 970 766 977 766 2 0
1 -6 -3 -12z m1201 -388 l488 -385 -254 -3 c-139 -1 -259 0 -265 2 -11 4 -54
73 -336 537 -152 250 -155 254 -135 242 8 -4 234 -181 502 -393z m3017 128
c172 -133 391 -302 486 -376 95 -74 171 -136 169 -139 -3 -2 -101 -4 -219 -4
-180 1 -215 4 -223 17 -5 8 -128 178 -272 376 -145 199 -263 363 -263 365 0 9
37 -18 322 -239z m-7434 184 c-35 -48 -539 -671 -551 -681 -10 -8 -68 -11
-193 -9 l-179 3 460 352 c253 194 464 353 468 353 5 0 2 -8 -5 -18z m-1783
-379 c223 -180 433 -350 468 -377 34 -27 68 -57 75 -67 9 -14 12 -200 10 -875
l-3 -857 -216 269 c-680 848 -1169 1465 -1183 1492 -36 70 -32 78 201 427 133
200 222 324 229 321 7 -3 195 -152 419 -333z m11196 207 c46 -72 141 -219 211
-327 141 -220 142 -222 89 -314 -48 -84 -1326 -1683 -1330 -1663 -7 37 20
1625 29 1648 13 35 97 112 405 368 154 128 330 274 390 325 61 51 113 93 116
93 4 0 44 -59 90 -130z m-3373 -27 c-8 -10 -96 -108 -194 -218 -99 -111 -195
-220 -214 -243 l-35 -43 -119 3 -119 3 339 257 c186 141 343 257 348 258 5 0
2 -8 -6 -17z m-6575 -790 c63 -149 280 -669 497 -1193 53 -129 165 -397 248
-595 171 -409 193 -465 187 -465 -2 0 -70 111 -151 248 -81 136 -173 290 -204
342 -31 52 -131 219 -220 370 -165 278 -229 385 -629 1057 -121 204 -221 377
-221 382 0 8 70 11 213 11 l213 0 67 -157z m2427 144 c0 -13 -114 -384 -430
-1402 -239 -771 -297 -958 -352 -1135 -49 -160 -76 -224 -64 -150 4 19 33 269
66 555 184 1618 242 2121 246 2133 5 18 534 18 534 -1z m892 -412 c54 -231
136 -584 183 -785 46 -201 112 -482 145 -625 34 -143 94 -402 135 -575 40
-173 76 -328 80 -345 23 -92 26 -100 -1037 2305 -98 223 -181 415 -185 428
l-5 22 293 -2 293 -3 98 -420z m2238 409 c0 -6 -345 -778 -540 -1209 -65 -143
-192 -426 -283 -630 -351 -785 -397 -884 -381 -819 2 10 46 215 98 454 407
1875 477 2192 483 2203 5 8 623 10 623 1z m638 -294 c276 -1886 328 -2246 325
-2249 -8 -10 4 -50 -201 659 -33 113 -90 309 -127 435 -64 223 -82 283 -179
615 -159 548 -236 816 -236 827 0 11 37 13 187 11 l187 -3 44 -295z m2559 286
c-5 -12 -155 -261 -687 -1136 -92 -151 -288 -475 -437 -720 -148 -245 -339
-559 -424 -698 -84 -140 -155 -250 -157 -244 -1 5 15 54 37 108 22 55 187 473
366 929 180 457 350 891 380 965 29 74 110 281 180 460 70 179 132 331 138
338 15 19 611 18 604 -2z m-3083 -133 c9 -30 233 -801 432 -1488 31 -104 71
-244 91 -310 19 -66 122 -421 229 -790 107 -368 201 -689 209 -711 l16 -42
-169 -278 c-93 -154 -240 -396 -327 -539 -87 -143 -170 -280 -185 -305 -15
-25 -96 -160 -182 -300 -85 -140 -278 -457 -428 -705 -150 -247 -362 -596
-470 -775 -221 -363 -672 -1107 -702 -1157 -11 -18 -24 -33 -29 -33 -5 0 -9
798 -9 2015 0 1730 2 2020 14 2052 8 21 22 66 30 100 9 35 123 302 255 595
131 293 279 623 328 733 87 192 263 584 515 1145 65 146 174 388 241 537 67
150 125 273 129 273 4 0 9 -8 12 -17z m-3014 -243 c59 -135 233 -528 385 -875
153 -346 435 -984 626 -1417 l349 -787 0 -2058 c0 -1373 -3 -2054 -10 -2047
-6 6 -50 77 -98 160 -49 82 -189 318 -312 524 -123 206 -264 445 -315 530 -51
85 -150 252 -220 370 -70 118 -213 359 -318 535 -104 176 -258 435 -342 575
-156 262 -488 820 -603 1015 -36 61 -112 188 -169 283 -56 95 -103 180 -103
189 0 9 66 228 146 487 81 259 168 541 194 626 27 85 100 322 163 525 63 204
192 620 287 925 95 305 181 586 193 623 11 37 24 66 29 65 5 -2 58 -114 118
-248z m-3081 0 c150 -253 440 -742 576 -970 125 -209 432 -727 603 -1015 52
-88 134 -225 182 -305 360 -602 414 -696 430 -757 7 -28 21 -51 41 -65 20 -15
88 -119 191 -293 88 -148 173 -290 188 -315 15 -25 84 -139 152 -255 69 -115
212 -356 318 -535 106 -179 290 -489 410 -690 119 -201 297 -500 395 -665 98
-165 218 -367 267 -449 49 -82 87 -150 85 -153 -2 -2 -82 94 -178 214 -95 120
-531 666 -968 1213 -437 547 -1024 1283 -1305 1635 -281 352 -737 923 -1013
1269 l-503 629 0 856 c1 772 2 854 16 836 9 -11 60 -94 113 -185z m9212 -684
c-6 -417 -15 -764 -20 -770 -49 -63 -2343 -2951 -2936 -3696 -243 -305 -868
-1091 -999 -1257 -49 -62 -91 -111 -94 -108 -4 4 60 110 476 795 69 113 137
225 152 250 15 25 148 245 297 490 148 245 316 522 373 615 56 94 126 208 155
255 29 47 144 236 255 420 112 184 310 511 440 725 130 215 328 541 440 725
112 184 273 450 358 590 85 140 238 392 340 560 102 168 248 409 325 535 244
402 369 608 406 670 l36 60 3 -50 c2 -28 -1 -392 -7 -809z"/>
</g>
</svg>
